Coordinates
nRows=279
nColumns=2
inDegrees=yes
endheader
time	ankle_angle_r	
3.39315	 -0.381470	
3.42641	 -0.427246	
3.45968	 -0.386439	
3.49294	 -0.406922	
3.52621	 -0.427246	
3.55948	 -0.431987	
3.59274	 -0.401276	
3.62601	 -0.457764	
3.65927	 -0.406438	
3.69254	 -0.411987	
3.72581	 -0.436762	
3.75907	 -0.402568	
3.79234	 -0.375534	
3.8256	 -0.427246	
3.85887	 -0.421117	
3.89214	 -0.396729	
3.9254	 -0.429860	
3.95867	 -0.418407	
3.99194	 -0.398955	
4.0252	 -0.427246	
4.05847	 -0.403438	
4.09173	 -0.422087	
4.125	 -0.427246	
4.15827	 -0.403728	
4.19153	 -0.429379	
4.2248	 -0.441632	
4.25806	 -0.450474	
4.29133	 -0.427246	
4.3246	 -0.450281	
4.35786	 -0.412087	
4.39113	 -0.434922	
4.4244	 -0.449991	
4.45766	 -0.388859	
4.49093	 -0.457090	
4.52419	 -0.449701	
4.55746	 -0.449604	
4.59073	 -0.434249	
4.62399	 -0.435599	
4.65726	 -0.420437	
4.69052	 -0.449217	
4.72379	 -0.433862	
4.75706	 -0.427246	
4.79032	 -0.455349	
4.82359	 -0.485674	
4.85685	 -0.411987	
4.89012	 -0.451631	
4.92339	 -0.463799	
4.95665	 -0.448444	
4.98992	 -0.442505	
5.02319	 -0.484513	
5.05645	 -0.442505	
5.08972	 -0.473022	
5.12298	 -0.482826	
5.15625	 -0.442505	
5.18952	 -0.488281	
5.22278	 -0.462929	
5.25605	 -0.442558	
5.28931	 -0.468050	
5.32258	 -0.442505	
5.35585	 -0.452985	
5.38911	 -0.448400	
5.42238	 -0.503540	
5.45565	 -0.433528	
5.48891	 -0.453372	
5.52218	 -0.479691	
5.55544	 -0.411987	
5.58871	 -0.480078	
5.62198	 -0.465012	
5.65524	 -0.423338	
5.68851	 -0.427246	
5.72177	 -0.473022	
5.75504	 -0.457764	
5.78831	 -0.457764	
5.82157	 -0.454339	
5.85484	 -0.461092	
5.8881	 -0.488281	
5.92137	 -0.482011	
5.95464	 -0.415026	
5.9879	 -0.451880	
6.02117	 -0.427246	
6.05444	 -0.411987	
6.0877	 -0.485630	
6.12097	 -0.437395	
6.15423	 -0.422330	
6.1875	 -0.440143	
6.22077	 -0.396729	
6.25403	 -0.396729	
6.2873	 -0.416130	
6.32056	 -0.398703	
6.35383	 -0.425368	
6.3871	 -0.427246	
6.42036	 -0.396729	
6.45363	 -0.442505	
6.4869	 -0.454781	
6.52016	 -0.413382	
6.55343	 -0.411987	
6.58669	 -0.414390	
6.61996	 -0.395624	
6.65323	 -0.411987	
6.68649	 -0.441594	
6.71976	 -0.411173	
6.75302	 -0.396011	
6.78629	 -0.427246	
6.81956	 -0.458288	
6.85282	 -0.396729	
6.88609	 -0.426915	
6.91935	 -0.396963	
6.95262	 -0.396729	
6.98589	 -0.442464	
7.01915	 -0.381525	
7.05242	 -0.411835	
7.08569	 -0.442505	
7.11895	 -0.397420	
7.15222	 -0.411545	
7.18548	 -0.442505	
7.21875	 -0.380198	
7.25202	 -0.395264	
7.28528	 -0.472193	
7.31855	 -0.398580	
7.35181	 -0.411987	
7.38508	 -0.457764	
7.41835	 -0.408340	
7.45161	 -0.411987	
7.48488	 -0.456354	
7.51815	 -0.413493	
7.55141	 -0.468215	
7.58468	 -0.427246	
7.61794	 -0.437117	
7.65121	 -0.427246	
7.68448	 -0.433214	
7.71774	 -0.396729	
7.75101	 -0.455581	
7.78427	 -0.470743	
7.81754	 -0.401481	
7.85081	 -0.496122	
7.88407	 -0.427246	
7.91734	 -0.411987	
7.9506	 -0.470260	
7.98387	 -0.427246	
8.01714	 -0.430202	
8.0504	 -0.454711	
8.08367	 -0.481982	
8.11694	 -0.384716	
8.1502	 -0.469679	
8.18347	 -0.500100	
8.21673	 -0.423710	
8.25	 -0.488281	
8.28327	 -0.461493	
8.31653	 -0.446331	
8.3498	 -0.453841	
8.38306	 -0.484261	
8.41633	 -0.468906	
8.4496	 -0.492494	
8.48286	 -0.496901	
8.51613	 -0.442505	
8.5494	 -0.477526	
8.58266	 -0.488281	
8.61593	 -0.422550	
8.64919	 -0.452970	
8.68246	 -0.478501	
8.71573	 -0.432233	
8.74899	 -0.457764	
8.78226	 -0.477921	
8.81552	 -0.402005	
8.84879	 -0.462276	
8.88206	 -0.463234	
8.91532	 -0.407862	
8.94859	 -0.476954	
8.98185	 -0.427246	
9.01512	 -0.411987	
9.04839	 -0.427246	
9.08165	 -0.454605	
9.11492	 -0.418134	
9.14819	 -0.464007	
9.18145	 -0.433586	
9.21472	 -0.427246	
9.24798	 -0.442505	
9.28125	 -0.405357	
9.31452	 -0.433973	
9.34778	 -0.464587	
9.38105	 -0.395310	
9.41431	 -0.402521	
9.44758	 -0.450650	
9.48085	 -0.427246	
9.51411	 -0.396729	
9.54738	 -0.404132	
9.58065	 -0.419488	
9.61391	 -0.366211	
9.64718	 -0.434811	
9.68044	 -0.381470	
9.71371	 -0.396213	
9.74698	 -0.442505	
9.78024	 -0.404809	
9.81351	 -0.396729	
9.84677	 -0.435520	
9.88004	 -0.405099	
9.91331	 -0.396729	
9.94657	 -0.442505	
9.97984	 -0.427246	
10.0131	 -0.403230	
10.0464	 -0.442505	
10.0796	 -0.372519	
10.1129	 -0.381470	
10.1462	 -0.457764	
10.1794	 -0.405969	
10.2127	 -0.375548	
10.246	 -0.411987	
10.2792	 -0.402456	
10.3125	 -0.371842	
10.3458	 -0.411987	
10.379	 -0.416370	
10.4123	 -0.423434	
10.4456	 -0.452519	
10.4788	 -0.386618	
10.5121	 -0.406831	
10.5454	 -0.432201	
10.5786	 -0.432104	
10.6119	 -0.411012	
10.6452	 -0.473022	
10.6784	 -0.416555	
10.7117	 -0.466706	
10.745	 -0.477397	
10.7782	 -0.405284	
10.8115	 -0.457764	
10.8448	 -0.449595	
10.878	 -0.446492	
10.9113	 -0.461655	
10.9446	 -0.473022	
10.9778	 -0.415685	
11.0111	 -0.427246	
11.0444	 -0.469518	
11.0776	 -0.457764	
11.1109	 -0.473022	
11.1442	 -0.473022	
11.1774	 -0.427246	
11.2107	 -0.436308	
11.244	 -0.445429	
11.2772	 -0.411987	
11.3105	 -0.457764	
11.3437	 -0.475656	
11.377	 -0.427246	
11.4103	 -0.457764	
11.4435	 -0.488281	
11.4768	 -0.427246	
11.5101	 -0.459914	
11.5433	 -0.473022	
11.5766	 -0.425289	
11.6099	 -0.440644	
11.6431	 -0.471259	
11.6764	 -0.442505	
11.7097	 -0.447216	
11.7429	 -0.499119	
11.7762	 -0.398106	
11.8095	 -0.488281	
11.8427	 -0.455396	
11.876	 -0.426159	
11.9093	 -0.442505	
11.9425	 -0.396729	
11.9758	 -0.412784	
12.0091	 -0.472322	
12.0423	 -0.441901	
12.0756	 -0.425725	
12.1089	 -0.427246	
12.1421	 -0.426933	
12.1754	 -0.366645	
12.2087	 -0.457523	
12.2419	 -0.381470	
12.2752	 -0.396729	
12.3085	 -0.427246	
12.3417	 -0.381470	
12.375	 -0.382560	
12.4083	 -0.396729	
12.4415	 -0.381470	
12.4748	 -0.382123	
12.5081	 -0.428746	
12.5413	 -0.381470	
12.5746	 -0.352839	
12.6079	 -0.399849	
12.6411	 -0.394455	
